HIERARCHY
ROOT Hips
{
	OFFSET 0.000000 0.000000 0.000000
	CHANNELS 6 Xposition Yposition Zposition Zrotation Yrotation Xrotation 
	JOINT LHipJoint
	{
		OFFSET 0.000000 0.000000 0.000000
		CHANNELS 3 Zrotation Yrotation Xrotation
		JOINT LeftUpLeg
		{
			OFFSET 1.363060 -1.794630 0.839290
			CHANNELS 3 Zrotation Yrotation Xrotation
			JOINT LeftLeg
			{
				OFFSET 2.448110 -6.726130 0.000000
				CHANNELS 3 Zrotation Yrotation Xrotation
				JOINT LeftFoot
				{
					OFFSET 2.562200 -7.039590 0.000000
					CHANNELS 3 Zrotation Yrotation Xrotation
					JOINT LeftToeBase
					{
						OFFSET 0.157640 -0.433110 2.322550
						CHANNELS 3 Zrotation Yrotation Xrotation
						End Site
						{
							OFFSET 0.000000 0.000000 0.000000
						}
					}
				}
			}
		}
	}
	JOINT RHipJoint
	{
		OFFSET 0.000000 0.000000 0.000000
		CHANNELS 3 Zrotation Yrotation Xrotation
		JOINT RightUpLeg
		{
			OFFSET -1.305520 -1.794630 0.839290
			CHANNELS 3 Zrotation Yrotation Xrotation
			JOINT RightLeg
			{
				OFFSET -2.542530 -6.985550 0.000000
				CHANNELS 3 Zrotation Yrotation Xrotation
				JOINT RightFoot
				{
					OFFSET -2.568260 -7.056230 0.000000
					CHANNELS 3 Zrotation Yrotation Xrotation
					JOINT RightToeBase
					{
						OFFSET -0.164730 -0.452590 2.363150
						CHANNELS 3 Zrotation Yrotation Xrotation
						End Site
						{
							OFFSET 0.000000 0.000000 0.000000
						}
					}
				}
			}
		}
	}
	JOINT LowerBack
	{
		OFFSET 0.000000 0.000000 0.000000
		CHANNELS 3 Zrotation Yrotation Xrotation
		JOINT Spine
		{
			OFFSET 0.028270 2.035590 -0.193380
			CHANNELS 3 Zrotation Yrotation Xrotation
			JOINT Spine1
			{
				OFFSET 0.056720 2.048850 -0.042750
				CHANNELS 3 Zrotation Yrotation Xrotation
				JOINT Neck
				{
					OFFSET 0.000000 0.000000 0.000000
					CHANNELS 3 Zrotation Yrotation Xrotation
					JOINT Neck1
					{
						OFFSET -0.054170 1.746240 0.172020
						CHANNELS 3 Zrotation Yrotation Xrotation
						JOINT Head
						{
							OFFSET 0.104070 1.761360 -0.123970
							CHANNELS 3 Zrotation Yrotation Xrotation
							End Site
							{
								OFFSET 0.000000 0.000000 0.000000
							}
						}
					}
				}
				JOINT LeftShoulder
				{
					OFFSET 0.000000 0.000000 0.000000
					CHANNELS 3 Zrotation Yrotation Xrotation
					JOINT LeftArm
					{
						OFFSET 3.362410 1.200890 -0.311210
						CHANNELS 3 Zrotation Yrotation Xrotation
						JOINT LeftForeArm
						{
							OFFSET 4.983000 -0.000000 -0.000000
							CHANNELS 3 Zrotation Yrotation Xrotation
							JOINT LeftHand
							{
								OFFSET 3.483560 -0.000000 -0.000000
								CHANNELS 3 Zrotation Yrotation Xrotation
								JOINT LeftFingerBase
								{
									OFFSET 0.000000 0.000000 0.000000
									CHANNELS 3 Zrotation Yrotation Xrotation
									JOINT LeftHandIndex1
									{
										OFFSET 0.715260 -0.000000 -0.000000
										CHANNELS 3 Zrotation Yrotation Xrotation
										End Site
										{
											OFFSET 0.000000 0.000000 0.000000
										}
									}
								}
								JOINT LThumb
								{
									OFFSET 0.000000 0.000000 0.000000
									CHANNELS 3 Zrotation Yrotation Xrotation
									End Site
									{
										OFFSET 0.000000 0.000000 0.000000
									}
								}
							}
						}
					}
				}
				JOINT RightShoulder
				{
					OFFSET 0.000000 0.000000 0.000000
					CHANNELS 3 Zrotation Yrotation Xrotation
					JOINT RightArm
					{
						OFFSET -3.136600 1.374050 -0.404650
						CHANNELS 3 Zrotation Yrotation Xrotation
						JOINT RightForeArm
						{
							OFFSET -5.241900 -0.000000 -0.000000
							CHANNELS 3 Zrotation Yrotation Xrotation
							JOINT RightHand
							{
								OFFSET -3.444170 -0.000000 -0.000000
								CHANNELS 3 Zrotation Yrotation Xrotation
								JOINT RightFingerBase
								{
									OFFSET 0.000000 0.000000 0.000000
									CHANNELS 3 Zrotation Yrotation Xrotation
									JOINT RightHandIndex1
									{
										OFFSET -0.622530 -0.000000 -0.000000
										CHANNELS 3 Zrotation Yrotation Xrotation
										End Site
										{
											OFFSET 0.000000 0.000000 0.000000
										}
									}
								}
								JOINT RThumb
								{
									OFFSET 0.000000 0.000000 0.000000
									CHANNELS 3 Zrotation Yrotation Xrotation
									End Site
									{
										OFFSET 0.000000 0.000000 0.000000
									}
								}
							}
						}
					}
				}
			}
		}
	}
}
MOTION
Frames: 8
Frame Time: 0.008333
-2.712404 17.325352 -1.187399 170.440213 -78.150043 -158.527149 -10.331457 -1.118865 -1.025233 -1.536907 -4.924717 -35.049984 0.674793 2.515193 48.806570 3.794121 24.733622 15.971254 9.719500 -0.000001 -54.874000 8.374300 0.334669 -0.668690 9.799771 7.471832 -10.166853 2.369003 0.827933 2.207806 -0.829221 -4.683584 -0.497599 -1.188200 -0.000000 -49.885000 6.145408 0.162220 4.514239 0.287391 -0.053057 -2.624662 -6.572850 -0.197516 -1.934527 8.926238 4.259719 1.312949 -4.637120 -0.401559 2.217527 0.000000 0.000000 0.000000 -3.321729 -6.575543 2.279404 -67.988352 -5.142183 15.581961 -2.735233 -29.590368 0.001982 3.615258 -4.312189 -0.140857 -0.075136 0.078697 0.000000 0.000000 0.000000 0.000000 0.000000 0.000000 0.000000 18.743803 4.774080 1.419015 69.531865 16.089014 1.932051 3.232858 16.871229 0.010448 -0.476355 10.807501 -0.050508 0.056572 -0.138251 0.000000 0.000000 0.000000 0.000000 0.000000 0.000000 0.000000 
-2.697077 17.327993 -1.205634 168.830828 -78.009129 -157.199388 -10.323637 -1.211275 -0.954725 -1.552656 -5.861278 -36.131167 0.759422 2.618733 51.064329 3.826051 24.855365 17.885660 10.404600 0.000000 -53.921200 8.399188 0.408163 -0.817295 9.517948 7.280700 -9.919898 2.325331 0.786090 2.464684 -0.824719 -4.604424 -0.634756 -1.154500 0.000001 -49.891800 6.080254 0.159533 4.635471 0.282474 -0.047294 -2.590687 -6.516644 -0.189122 -1.911019 8.886072 4.162814 1.250341 -4.628109 -0.400548 2.199076 0.000000 0.000000 0.000000 -3.364997 -6.453937 2.265085 -67.982269 -4.914680 15.358283 -2.734660 -29.582617 0.002119 3.529783 -4.280577 -0.136463 -0.074316 0.076501 0.000000 0.000000 0.000000 0.000000 0.000000 0.000000 0.000000 18.674376 4.692657 1.426499 69.286599 16.018187 1.791151 3.245311 16.779247 0.010519 -0.495297 10.734579 -0.052009 0.057530 -0.136975 0.000000 0.000000 0.000000 0.000000 0.000000 0.000000 0.000000 
-2.681148 17.330921 -1.222514 167.192506 -77.858644 -155.837143 -10.315339 -1.309170 -0.893579 -1.587333 -6.762687 -37.225732 0.831086 2.719440 53.255194 3.845139 24.849761 19.699362 10.985900 -0.000000 -52.978600 8.422927 0.482399 -0.963526 9.215005 7.110015 -9.675990 2.277349 0.743806 2.712471 -0.824683 -4.551932 -0.761366 -1.126800 0.000000 -49.930400 6.007487 0.160974 4.765522 0.275516 -0.036649 -2.555632 -6.461465 -0.176011 -1.888755 8.857014 4.070356 1.189577 -4.621126 -0.399633 2.180742 0.000000 0.000000 0.000000 -3.431206 -6.334140 2.252269 -67.968317 -4.705759 15.123248 -2.732625 -29.578167 0.002224 3.461061 -4.254631 -0.132969 -0.073441 0.074441 0.000000 0.000000 0.000000 0.000000 0.000000 0.000000 0.000000 18.627424 4.614550 1.437388 68.994284 15.932256 1.728623 3.257623 16.732253 0.010588 -0.504541 10.656003 -0.052610 0.058384 -0.135552 0.000000 0.000000 0.000000 0.000000 0.000000 0.000000 0.000000 
-2.664734 17.334156 -1.238196 165.525706 -77.695199 -154.438557 -10.306429 -1.410641 -0.841786 -1.641384 -7.624894 -38.333940 0.892959 2.819144 55.372015 3.849807 24.704954 21.352965 11.430000 -0.000000 -52.033000 8.446796 0.556708 -1.105590 8.888954 6.959512 -9.444738 2.225067 0.700177 2.960303 -0.828400 -4.520053 -0.881709 -1.103400 0.000000 -49.994900 5.922809 0.166837 4.901338 0.265539 -0.020793 -2.520147 -6.407929 -0.157867 -1.867689 8.841882 3.982986 1.132182 -4.616530 -0.398859 2.162942 0.000000 0.000000 0.000000 -3.513508 -6.217894 2.240106 -67.950232 -4.511909 14.872246 -2.729080 -29.574924 0.002300 3.411886 -4.237776 -0.130575 -0.072518 0.072491 0.000000 0.000000 0.000000 0.000000 0.000000 0.000000 0.000000 18.607269 4.539669 1.451407 68.655975 15.832709 1.735414 3.269791 16.722658 0.010653 -0.506284 10.575866 -0.052412 0.059140 -0.133990 0.000000 0.000000 0.000000 0.000000 0.000000 0.000000 0.000000 
-2.647994 17.337764 -1.252912 163.836077 -77.515287 -153.004981 -10.296247 -1.514486 -0.797907 -1.712648 -8.448035 -39.455410 0.948747 2.918242 57.402575 3.840617 24.426679 22.814680 11.724600 -0.000000 -51.292600 8.472108 0.630671 -1.241718 8.538275 6.829325 -9.236727 2.168557 0.654472 3.217398 -0.835118 -4.502927 -0.999266 -1.082699 0.000000 -50.079800 5.822891 0.177121 5.038866 0.251840 0.000208 -2.484908 -6.356392 -0.134751 -1.847141 8.842370 3.902579 1.079067 -4.614347 -0.398245 2.145942 0.000000 0.000000 0.000000 -3.605165 -6.102399 2.227832 -67.931273 -4.333204 14.608547 -2.724177 -29.569677 0.002354 3.385525 -4.232229 -0.129282 -0.071582 0.070634 0.000000 0.000000 0.000000 0.000000 0.000000 0.000000 0.000000 18.615531 4.469530 1.467787 68.275215 15.721001 1.796994 3.281775 16.741533 0.010714 -0.502520 10.498452 -0.051713 0.059801 -0.132303 0.000000 0.000000 0.000000 0.000000 0.000000 0.000000 0.000000 
-2.630943 17.341753 -1.266850 162.140382 -77.316977 -151.551373 -10.284021 -1.619853 -0.761333 -1.796343 -9.228669 -40.593665 1.002390 3.017502 59.341054 3.817636 24.017686 24.044149 11.856800 -0.000001 -50.753500 8.499933 0.703997 -1.369820 8.164090 6.722483 -9.059454 2.107955 0.606347 3.488460 -0.844612 -4.499211 -1.113961 -1.064500 -0.000000 -50.187600 5.707304 0.191832 5.174830 0.234341 0.026222 -2.450508 -6.306979 -0.106788 -1.826850 8.859066 3.830010 1.030998 -4.614369 -0.397795 2.129995 0.000000 0.000000 0.000000 -3.699087 -5.987144 2.214653 -67.915983 -4.167060 14.332724 -2.718019 -29.559814 0.002390 3.382159 -4.239713 -0.129289 -0.070648 0.068848 0.000000 0.000000 0.000000 0.000000 0.000000 0.000000 0.000000 18.651513 4.404995 1.485941 67.857702 15.599846 1.896044 3.293661 16.777519 0.010775 -0.495539 10.427836 -0.050815 0.060381 -0.130519 0.000000 0.000000 0.000000 0.000000 0.000000 0.000000 0.000000 
-2.613782 17.346132 -1.280224 160.450473 -77.098147 -150.085723 -10.268519 -1.726310 -0.730211 -1.887499 -9.966782 -41.750594 1.056906 3.116285 61.177203 3.782827 23.498749 25.028220 11.836201 -0.000000 -50.534500 8.531684 0.776686 -1.489302 7.766272 6.635010 -8.921655 2.043739 0.555413 3.781232 -0.855567 -4.500595 -1.228160 -1.047100 0.000000 -50.315901 5.574382 0.210492 5.306276 0.212791 0.056697 -2.417419 -6.259581 -0.074525 -1.806273 8.891782 3.766362 0.988323 -4.616160 -0.397496 2.115238 0.000000 0.000000 0.000000 -3.788271 -5.870610 2.200078 -67.908418 -4.012147 14.047607 -2.711005 -29.542145 0.002415 3.399863 -4.260542 -0.130496 -0.069744 0.067118 0.000000 0.000000 0.000000 0.000000 0.000000 0.000000 0.000000 18.712898 4.347135 1.505165 67.411303 15.472205 2.013132 3.305402 16.819375 0.010834 -0.487525 10.366883 -0.049816 0.060895 -0.128672 0.000000 0.000000 0.000000 0.000000 0.000000 0.000000 0.000000 
-2.596537 17.350865 -1.293159 158.796663 -76.859651 -148.635834 -10.248905 -1.833344 -0.704257 -1.977483 -10.655604 -42.932652 1.115239 3.215044 62.909571 3.736659 22.879887 25.736339 11.663600 -0.000000 -50.398400 8.567571 0.848482 -1.598408 7.350265 6.570552 -8.825556 1.976513 0.502224 4.093907 -0.867997 -4.508788 -1.338535 -1.031200 0.000000 -50.469100 5.427879 0.232749 5.431061 0.188041 0.091031 -2.385985 -6.213937 -0.038555 -1.785181 8.938703 3.710532 0.950625 -4.619143 -0.397316 2.101637 0.000000 0.000000 0.000000 -3.866343 -5.753877 2.183600 -67.913953 -3.864046 13.752019 -2.703242 -29.515911 0.002437 3.433745 -4.293229 -0.132703 -0.068865 0.065431 0.000000 0.000000 0.000000 0.000000 0.000000 0.000000 0.000000 18.794981 4.295196 1.525186 66.944471 15.343509 2.131524 3.317249 16.854206 0.010896 -0.481340 10.318549 -0.049018 0.061380 -0.126805 0.000000 0.000000 0.000000 0.000000 0.000000 0.000000 0.000000 
